<svg width="39" height="27" viewBox="0 0 39 27" fill="none" xmlns="http://www.w3.org/2000/svg">
<path fill-rule="evenodd" clip-rule="evenodd" d="M0.125 9.41666C0.125 8.86437 0.572715 8.41666 1.125 8.41666H29.7083C30.2606 8.41666 30.7083 8.86437 30.7083 9.41666C30.7083 9.96894 30.2606 10.4167 29.7083 10.4167H1.125C0.572715 10.4167 0.125 9.96894 0.125 9.41666Z" fill="#3E7D52"/>
<path fill-rule="evenodd" clip-rule="evenodd" d="M0.125 1.25C0.125 0.697715 0.572715 0.25 1.125 0.25H37.875C38.4273 0.25 38.875 0.697715 38.875 1.25C38.875 1.80228 38.4273 2.25 37.875 2.25H1.125C0.572715 2.25 0.125 1.80228 0.125 1.25Z" fill="#3E7D52"/>
<path fill-rule="evenodd" clip-rule="evenodd" d="M0.125 17.5833C0.125 17.0311 0.572715 16.5833 1.125 16.5833H37.875C38.4273 16.5833 38.875 17.0311 38.875 17.5833C38.875 18.1356 38.4273 18.5833 37.875 18.5833H1.125C0.572715 18.5833 0.125 18.1356 0.125 17.5833Z" fill="#3E7D52"/>
<path fill-rule="evenodd" clip-rule="evenodd" d="M0.125 25.75C0.125 25.1977 0.572715 24.75 1.125 24.75H29.7083C30.2606 24.75 30.7083 25.1977 30.7083 25.75C30.7083 26.3023 30.2606 26.75 29.7083 26.75H1.125C0.572715 26.75 0.125 26.3023 0.125 25.75Z" fill="#3E7D52"/>
</svg>
