<svg xmlns="http://www.w3.org/2000/svg" xmlns:xlink="http://www.w3.org/1999/xlink"><symbol id="icon-arrdown" viewBox="0 0 63 33"><path fill-rule="evenodd" clip-rule="evenodd" d="M31.5 32.068L.967 3.088 3.033.912 31.5 27.932 59.967.912l2.066 2.176L31.5 32.068z"/></symbol><symbol id="icon-arrow-left" viewBox="0 0 33 62"><path fill-rule="evenodd" clip-rule="evenodd" d="M.915 31L29.92.958l2.158 2.084L5.085 31l26.994 27.958-2.158 2.084L.915 31z"/></symbol><symbol id="icon-arrow-right" viewBox="0 0 32 62"><path fill-rule="evenodd" clip-rule="evenodd" d="M31.05 31L3.097.978.902 3.022 26.951 31 .901 58.978l2.196 2.044L31.049 31z"/></symbol><symbol id="icon-arrowupstairs" viewBox="0 0 63 33"><path fill-rule="evenodd" clip-rule="evenodd" d="M31.5.932L.967 29.912l2.066 2.176L31.5 5.068l28.467 27.02 2.066-2.176L31.5.932z"/></symbol><symbol id="icon-circle" viewBox="0 0 830 830"><path d="M830 415c0 229.198-185.802 415-415 415S0 644.198 0 415 185.802 0 415 0s415 185.802 415 415z"/></symbol><symbol id="icon-facebook" viewBox="0 0 8 15"><path d="M7.476 8.438l.415-2.715H5.297V3.96c0-.742.362-1.466 1.524-1.466H8V.183S6.93 0 5.907 0C3.77 0 2.374 1.3 2.374 3.654v2.069H0v2.715h2.374V15h2.923V8.437h2.179z"/></symbol><symbol id="icon-menu" viewBox="0 0 39 27"><path fill-rule="evenodd" clip-rule="evenodd" d="M.125 9.417a1 1 0 011-1h28.583a1 1 0 110 2H1.125a1 1 0 01-1-1zM.125 1.25a1 1 0 011-1h36.75a1 1 0 110 2H1.125a1 1 0 01-1-1zM.125 17.583a1 1 0 011-1h36.75a1 1 0 010 2H1.125a1 1 0 01-1-1zM.125 25.75a1 1 0 011-1h28.583a1 1 0 110 2H1.125a1 1 0 01-1-1z"/></symbol><symbol id="icon-search" viewBox="0 0 25 25"><path d="M24.658 21.616l-4.868-4.868a1.17 1.17 0 00-.83-.342h-.796a10.107 10.107 0 002.148-6.25C20.313 4.546 15.768 0 10.156 0 4.546 0 0 4.546 0 10.156s4.546 10.156 10.156 10.156c2.359 0 4.527-.8 6.25-2.148v.796c0 .313.122.61.342.83l4.868 4.868a1.167 1.167 0 001.655 0l1.382-1.382a1.177 1.177 0 00.005-1.66zm-14.502-5.21a6.246 6.246 0 01-6.25-6.25 6.246 6.246 0 016.25-6.25 6.246 6.246 0 016.25 6.25 6.246 6.246 0 01-6.25 6.25z"/></symbol><symbol id="icon-telegram" viewBox="0 0 14 12"><path d="M13.086 1.002l-1.98 9.34c-.15.659-.54.823-1.093.512L6.996 8.631l-1.456 1.4c-.162.161-.296.296-.607.296l.217-3.073L10.743 2.2c.243-.217-.053-.337-.378-.12L3.45 6.434.474 5.502c-.647-.202-.659-.647.135-.958L12.252.059c.538-.203 1.01.12.834.943z"/></symbol><symbol id="icon-whatsapp" viewBox="0 0 14 14"><path d="M11.875 2.063A6.826 6.826 0 006.969 0C3.156 0 .03 3.125.03 6.938c0 1.25.344 2.437.938 3.468L0 14l3.656-.938c1.031.532 2.156.844 3.313.844 3.843 0 7.031-3.125 7.031-6.937 0-1.875-.813-3.594-2.125-4.907zM6.969 12.719a5.78 5.78 0 01-2.938-.813l-.187-.125-2.188.594.594-2.125-.156-.219c-.563-.937-.875-2-.875-3.094 0-3.156 2.593-5.75 5.781-5.75 1.531 0 2.969.594 4.063 1.688 1.093 1.094 1.75 2.531 1.75 4.094 0 3.156-2.657 5.75-5.844 5.75zm3.187-4.313c-.187-.094-1.031-.5-1.187-.562-.156-.063-.281-.094-.406.093-.094.157-.438.563-.532.688-.125.094-.219.125-.375.031-1.031-.5-1.687-.906-2.375-2.062-.187-.313.188-.282.5-.938.063-.125.032-.218 0-.312-.031-.094-.406-.938-.531-1.282-.156-.343-.281-.312-.406-.312H4.53a.586.586 0 00-.468.219c-.157.187-.594.594-.594 1.437 0 .875.594 1.688.687 1.813.094.093 1.219 1.843 2.969 2.593 1.094.5 1.531.532 2.094.438.312-.031 1-.406 1.156-.813.156-.406.156-.75.094-.812-.031-.094-.156-.125-.313-.219z"/></symbol><symbol id="icon-youtube" viewBox="0 0 16 11"><path d="M15.666 1.721A1.988 1.988 0 0014.25.33C13.003 0 8 0 8 0S2.997 0 1.749.329A1.988 1.988 0 00.334 1.721C0 2.95 0 5.511 0 5.511s0 2.562.334 3.79c.184.678.727 1.189 1.415 1.37C2.997 11 8 11 8 11s5.003 0 6.251-.329c.689-.181 1.23-.692 1.415-1.37C16 8.073 16 5.511 16 5.511s0-2.562-.334-3.79zM6.364 7.837V3.185l4.181 2.326-4.181 2.326z"/></symbol> <view id="icon-arrdown-view-white" viewBox="0 0 63 33"/><view id="icon-arrdown-view-black" viewBox="0 43 63 33"/><view id="icon-arrdown-view-green" viewBox="0 86 63 33"/><view id="icon-arrow-left-view-white" viewBox="0 129 33 62"/><view id="icon-arrow-left-view-black" viewBox="0 201 33 62"/><view id="icon-arrow-left-view-green" viewBox="0 273 33 62"/><view id="icon-arrow-right-view-white" viewBox="0 345 32 62"/><view id="icon-arrow-right-view-black" viewBox="0 417 32 62"/><view id="icon-arrow-right-view-green" viewBox="0 489 32 62"/><view id="icon-arrowupstairs-view-white" viewBox="0 561 63 33"/><view id="icon-arrowupstairs-view-black" viewBox="0 604 63 33"/><view id="icon-arrowupstairs-view-green" viewBox="0 647 63 33"/><view id="icon-circle-view-white" viewBox="0 690 830 830"/><view id="icon-circle-view-black" viewBox="0 1530 830 830"/><view id="icon-circle-view-green" viewBox="0 2370 830 830"/><view id="icon-facebook-view-white" viewBox="0 3210 8 15"/><view id="icon-facebook-view-black" viewBox="0 3235 8 15"/><view id="icon-facebook-view-green" viewBox="0 3260 8 15"/><view id="icon-menu-view-white" viewBox="0 3285 39 27"/><view id="icon-menu-view-black" viewBox="0 3322 39 27"/><view id="icon-menu-view-green" viewBox="0 3359 39 27"/><view id="icon-search-view-white" viewBox="0 3396 25 25"/><view id="icon-search-view-black" viewBox="0 3431 25 25"/><view id="icon-search-view-green" viewBox="0 3466 25 25"/><view id="icon-telegram-view-white" viewBox="0 3501 14 12"/><view id="icon-telegram-view-black" viewBox="0 3523 14 12"/><view id="icon-telegram-view-green" viewBox="0 3545 14 12"/><view id="icon-whatsapp-view-white" viewBox="0 3567 14 14"/><view id="icon-whatsapp-view-black" viewBox="0 3591 14 14"/><view id="icon-whatsapp-view-green" viewBox="0 3615 14 14"/><view id="icon-youtube-view-white" viewBox="0 3639 16 11"/><view id="icon-youtube-view-black" viewBox="0 3660 16 11"/><view id="icon-youtube-view-green" viewBox="0 3681 16 11"/> <use xlink:href="#icon-arrdown" x="0" y="0" width="63" height="33" style="fill:#ffffff"/><use xlink:href="#icon-arrdown" x="0" y="43" width="63" height="33" style="fill:#000000"/><use xlink:href="#icon-arrdown" x="0" y="86" width="63" height="33" style="fill:#3E7D52"/><use xlink:href="#icon-arrow-left" x="0" y="129" width="33" height="62" style="fill:#ffffff"/><use xlink:href="#icon-arrow-left" x="0" y="201" width="33" height="62" style="fill:#000000"/><use xlink:href="#icon-arrow-left" x="0" y="273" width="33" height="62" style="fill:#3E7D52"/><use xlink:href="#icon-arrow-right" x="0" y="345" width="32" height="62" style="fill:#ffffff"/><use xlink:href="#icon-arrow-right" x="0" y="417" width="32" height="62" style="fill:#000000"/><use xlink:href="#icon-arrow-right" x="0" y="489" width="32" height="62" style="fill:#3E7D52"/><use xlink:href="#icon-arrowupstairs" x="0" y="561" width="63" height="33" style="fill:#ffffff"/><use xlink:href="#icon-arrowupstairs" x="0" y="604" width="63" height="33" style="fill:#000000"/><use xlink:href="#icon-arrowupstairs" x="0" y="647" width="63" height="33" style="fill:#3E7D52"/><use xlink:href="#icon-circle" x="0" y="690" width="830" height="830" style="fill:#ffffff"/><use xlink:href="#icon-circle" x="0" y="1530" width="830" height="830" style="fill:#000000"/><use xlink:href="#icon-circle" x="0" y="2370" width="830" height="830" style="fill:#3E7D52"/><use xlink:href="#icon-facebook" x="0" y="3210" width="8" height="15" style="fill:#ffffff"/><use xlink:href="#icon-facebook" x="0" y="3235" width="8" height="15" style="fill:#000000"/><use xlink:href="#icon-facebook" x="0" y="3260" width="8" height="15" style="fill:#3E7D52"/><use xlink:href="#icon-menu" x="0" y="3285" width="39" height="27" style="fill:#ffffff"/><use xlink:href="#icon-menu" x="0" y="3322" width="39" height="27" style="fill:#000000"/><use xlink:href="#icon-menu" x="0" y="3359" width="39" height="27" style="fill:#3E7D52"/><use xlink:href="#icon-search" x="0" y="3396" width="25" height="25" style="fill:#ffffff"/><use xlink:href="#icon-search" x="0" y="3431" width="25" height="25" style="fill:#000000"/><use xlink:href="#icon-search" x="0" y="3466" width="25" height="25" style="fill:#3E7D52"/><use xlink:href="#icon-telegram" x="0" y="3501" width="14" height="12" style="fill:#ffffff"/><use xlink:href="#icon-telegram" x="0" y="3523" width="14" height="12" style="fill:#000000"/><use xlink:href="#icon-telegram" x="0" y="3545" width="14" height="12" style="fill:#3E7D52"/><use xlink:href="#icon-whatsapp" x="0" y="3567" width="14" height="14" style="fill:#ffffff"/><use xlink:href="#icon-whatsapp" x="0" y="3591" width="14" height="14" style="fill:#000000"/><use xlink:href="#icon-whatsapp" x="0" y="3615" width="14" height="14" style="fill:#3E7D52"/><use xlink:href="#icon-youtube" x="0" y="3639" width="16" height="11" style="fill:#ffffff"/><use xlink:href="#icon-youtube" x="0" y="3660" width="16" height="11" style="fill:#000000"/><use xlink:href="#icon-youtube" x="0" y="3681" width="16" height="11" style="fill:#3E7D52"/></svg>